<?xml version="1.0" encoding="UTF-8" standalone="no"?>
<!DOCTYPE svg PUBLIC "-//W3C//DTD SVG 1.1//EN" "http://www.w3.org/Graphics/SVG/1.1/DTD/svg11.dtd">
<svg width="200" height="200" viewBox="0 0 200 200" version="1.1" xmlns="http://www.w3.org/2000/svg" xmlns:xlink="http://www.w3.org/1999/xlink" xml:space="preserve" xmlns:serif="http://www.serif.com/" style="fill-rule:evenodd;clip-rule:evenodd;stroke-linejoin:round;stroke-miterlimit:2;">
    <g id="Affection" transform="matrix(2,0,0,2,0,0)">
        <path id="rect5322" d="M100,3.75C100,1.68 98.32,0 96.25,0L3.75,0C1.68,0 0,1.68 0,3.75L0,96.25C0,98.32 1.68,100 3.75,100L96.25,100C98.32,100 100,98.32 100,96.25L100,3.75Z" style="fill:rgb(34,34,34);"/>
        <path id="rect5324" d="M95,7.5C95,6.12 93.88,5 92.5,5L7.5,5C6.12,5 5,6.12 5,7.5L5,92.5C5,93.88 6.12,95 7.5,95L92.5,95C93.88,95 95,93.88 95,92.5L95,7.5Z" style="fill:rgb(179,0,0);"/>
        <path id="path5326" d="M2.75,70L2.75,95C2.75,100.817 7.433,96.25 13.25,96.25L86.75,96.25C92.567,96.25 97.25,100.817 97.25,95L97.25,70L2.75,70Z" style="fill:rgb(34,34,34);fill-rule:nonzero;"/>
        <g transform="matrix(0.134027,0,0,0.134027,15.5983,16.4314)">
            <path d="M473.286,139.325C451.953,116.925 422.086,108.392 391.153,111.592C395.42,80.659 386.886,49.725 365.553,28.392C326.086,-12.141 259.953,-8.941 210.886,35.859C187.419,57.192 173.553,101.992 169.286,172.392C158.619,176.659 147.953,184.125 139.419,192.659C117.019,213.992 108.486,244.926 111.686,275.859C80.753,271.592 49.819,280.126 28.486,301.459C-10.98,340.925 -7.78,408.125 35.953,457.191C62.62,485.991 125.553,500.924 226.886,500.924C272.753,500.924 307.953,497.724 309.019,498.791C318.619,497.724 327.152,490.258 328.219,480.658C330.352,468.925 338.886,403.858 335.686,336.658C396.486,332.391 439.153,318.525 461.553,295.058C485.019,272.658 498.886,240.658 499.953,209.725C501.02,183.058 491.42,157.458 473.286,139.325ZM289.82,457.191C274.887,458.258 252.487,459.324 226.887,459.324C144.754,459.324 85.02,448.657 67.954,429.457C39.154,397.457 34.887,354.79 58.354,331.324C71.154,318.524 86.087,316.391 96.754,316.391C108.487,316.391 121.287,319.591 133.021,324.924C140.488,329.191 151.154,328.124 157.554,321.724C163.954,315.324 166.087,305.724 161.821,297.191C147.954,270.524 150.088,239.591 168.221,221.458C178.888,211.858 192.754,206.525 207.688,206.525C227.955,206.525 249.288,216.125 264.221,232.125C302.62,273.725 297.286,396.392 289.82,457.191ZM433.82,265.191C416.753,282.258 381.553,292.924 331.42,296.124C326.087,259.857 314.353,226.791 294.087,204.391C272.754,179.858 242.887,165.991 211.954,164.924C218.354,94.524 233.287,72.124 239.687,66.791C271.687,37.991 314.354,33.724 336.754,57.191C354.887,76.391 357.021,106.258 342.087,133.991C337.82,141.458 338.887,152.124 345.287,158.524C351.687,165.991 361.287,167.057 369.82,162.791C396.487,147.858 426.353,151.058 444.487,169.191C454.087,178.791 459.42,193.724 459.42,209.724C459.42,229.991 449.82,250.258 433.82,265.191Z" style="fill:rgb(34,34,34);fill-rule:nonzero;"/>
        </g>
        <g transform="matrix(0.473954,0,0,0.532532,-0.366362,-6.26207)">
            <g transform="matrix(30.0451,0,0,30.0451,15.9979,179.789)">
                <path d="M0.584,-0L0.519,-0.151L0.226,-0.151L0.161,-0L-0.005,-0L0.297,-0.699L0.448,-0.699L0.75,-0L0.584,-0ZM0.373,-0.491L0.285,-0.288L0.46,-0.288L0.373,-0.491Z" style="fill:rgb(238,238,238);fill-rule:nonzero;"/>
            </g>
            <g transform="matrix(30.0451,0,0,30.0451,38.3815,179.789)">
                <path d="M0.566,-0.699L0.566,-0.562L0.242,-0.562L0.242,-0.411L0.55,-0.411L0.55,-0.274L0.242,-0.274L0.242,-0L0.086,-0L0.086,-0.699L0.566,-0.699Z" style="fill:rgb(238,238,238);fill-rule:nonzero;"/>
            </g>
            <g transform="matrix(30.0451,0,0,30.0451,56.7692,179.789)">
                <path d="M0.566,-0.699L0.566,-0.562L0.242,-0.562L0.242,-0.411L0.55,-0.411L0.55,-0.274L0.242,-0.274L0.242,-0L0.086,-0L0.086,-0.699L0.566,-0.699Z" style="fill:rgb(238,238,238);fill-rule:nonzero;"/>
            </g>
            <g transform="matrix(30.0451,0,0,30.0451,75.1568,179.789)">
                <path d="M0.59,-0.699L0.59,-0.56L0.242,-0.56L0.242,-0.416L0.555,-0.416L0.555,-0.283L0.242,-0.283L0.242,-0.138L0.601,-0.138L0.601,-0L0.086,-0L0.086,-0.699L0.59,-0.699Z" style="fill:rgb(238,238,238);fill-rule:nonzero;"/>
            </g>
            <g transform="matrix(30.0451,0,0,30.0451,94.8063,179.789)">
                <path d="M0.407,-0.138C0.484,-0.138 0.546,-0.168 0.595,-0.229L0.695,-0.126C0.616,-0.037 0.522,0.008 0.414,0.008C0.307,0.008 0.218,-0.026 0.149,-0.094C0.079,-0.162 0.044,-0.248 0.044,-0.352C0.044,-0.455 0.08,-0.542 0.151,-0.611C0.222,-0.68 0.308,-0.715 0.411,-0.715C0.526,-0.715 0.622,-0.671 0.699,-0.584L0.602,-0.474C0.553,-0.535 0.491,-0.566 0.418,-0.566C0.359,-0.566 0.309,-0.547 0.268,-0.508C0.226,-0.47 0.205,-0.419 0.205,-0.354C0.205,-0.289 0.225,-0.236 0.264,-0.197C0.303,-0.158 0.351,-0.138 0.407,-0.138Z" style="fill:rgb(238,238,238);fill-rule:nonzero;"/>
            </g>
            <g transform="matrix(30.0451,0,0,30.0451,116.799,179.789)">
                <path d="M0.382,-0.564L0.382,-0L0.226,-0L0.226,-0.564L0.028,-0.564L0.028,-0.699L0.58,-0.699L0.58,-0.564L0.382,-0.564Z" style="fill:rgb(238,238,238);fill-rule:nonzero;"/>
            </g>
            <g transform="matrix(30.0451,0,0,30.0451,135.067,179.789)">
                <rect x="0.086" y="-0.699" width="0.156" height="0.699" style="fill:rgb(238,238,238);fill-rule:nonzero;"/>
            </g>
            <g transform="matrix(30.0451,0,0,30.0451,144.922,179.789)">
                <path d="M0.621,-0.354C0.621,-0.416 0.601,-0.469 0.561,-0.513C0.521,-0.557 0.472,-0.579 0.413,-0.579C0.355,-0.579 0.306,-0.557 0.266,-0.513C0.226,-0.469 0.206,-0.416 0.206,-0.354C0.206,-0.291 0.226,-0.238 0.266,-0.195C0.306,-0.151 0.355,-0.129 0.413,-0.129C0.472,-0.129 0.521,-0.151 0.561,-0.195C0.601,-0.238 0.621,-0.291 0.621,-0.354ZM0.674,-0.097C0.603,-0.028 0.516,0.007 0.413,0.007C0.31,0.007 0.223,-0.028 0.152,-0.097C0.081,-0.166 0.046,-0.251 0.046,-0.354C0.046,-0.457 0.081,-0.543 0.152,-0.612C0.223,-0.681 0.31,-0.715 0.413,-0.715C0.516,-0.715 0.603,-0.681 0.674,-0.612C0.745,-0.543 0.78,-0.457 0.78,-0.354C0.78,-0.251 0.745,-0.166 0.674,-0.097Z" style="fill:rgb(238,238,238);fill-rule:nonzero;"/>
            </g>
            <g transform="matrix(30.0451,0,0,30.0451,169.739,179.789)">
                <path d="M0.575,-0.699L0.731,-0.699L0.731,-0L0.575,-0L0.242,-0.438L0.242,-0L0.086,-0L0.086,-0.699L0.232,-0.699L0.575,-0.249L0.575,-0.699Z" style="fill:rgb(238,238,238);fill-rule:nonzero;"/>
            </g>
        </g>
    </g>
</svg>
