<?xml version="1.0" encoding="UTF-8" standalone="no"?>
<!DOCTYPE svg PUBLIC "-//W3C//DTD SVG 1.1//EN" "http://www.w3.org/Graphics/SVG/1.1/DTD/svg11.dtd">
<svg width="200" height="200" viewBox="0 0 200 200" version="1.1" xmlns="http://www.w3.org/2000/svg" xmlns:xlink="http://www.w3.org/1999/xlink" xml:space="preserve" xmlns:serif="http://www.serif.com/" style="fill-rule:evenodd;clip-rule:evenodd;stroke-linejoin:round;stroke-miterlimit:2;">
    <g id="Deviant" transform="matrix(2,0,0,2,0,0)">
        <path id="rect5322" d="M100,3.75C100,1.68 98.32,0 96.25,0L3.75,0C1.68,0 0,1.68 0,3.75L0,96.25C0,98.32 1.68,100 3.75,100L96.25,100C98.32,100 100,98.32 100,96.25L100,3.75Z" style="fill:rgb(34,34,34);"/>
        <path id="rect5324" d="M95,7.5C95,6.12 93.88,5 92.5,5L7.5,5C6.12,5 5,6.12 5,7.5L5,92.5C5,93.88 6.12,95 7.5,95L92.5,95C93.88,95 95,93.88 95,92.5L95,7.5Z" style="fill:rgb(131,0,230);"/>
        <path id="path5326" d="M2.75,70L2.75,95C2.75,100.817 7.433,96.25 13.25,96.25L86.75,96.25C92.567,96.25 97.25,100.817 97.25,95L97.25,70L2.75,70Z" style="fill:rgb(34,34,34);fill-rule:nonzero;"/>
        <g transform="matrix(0.00651685,-0.00366863,-0.00366863,-0.00651685,26.473,110.355)">
            <path d="M6580,10393C6566,10391 6456,10369 6335,10345C5845,10246 5490,10122 5255,9965C5155,9899 5036,9775 4993,9694C4958,9629 4930,9528 4930,9469C4930,9449 4948,9369 4970,9291C4992,9213 5008,9144 5005,9139C5001,9134 4991,9130 4980,9130C4959,9130 4870,9081 4781,9021C4617,8909 4409,8707 4230,8484L4130,8360L4130,8294C4130,8215 4149,8171 4199,8130C4218,8113 4232,8100 4228,8100C4225,8100 4097,8132 3944,8171C3690,8236 3663,8241 3627,8230C3479,8186 3313,7824 3077,7030L3043,6915L2999,6913C2219,6870 1671,6391 1366,5488C1294,5277 1200,4901 1200,4829C1200,4762 1223,4669 1248,4632C1270,4600 1275,4579 1282,4481C1292,4344 1328,4158 1370,4031C1581,3383 2142,2909 3053,2606C3335,2512 3833,2390 3933,2390C4010,2390 4583,2460 4640,2476C4733,2503 4969,2599 5094,2662C5756,2994 6124,3482 6226,4162C6247,4305 6256,4696 6241,4853C6207,5211 6077,5512 5815,5835L5727,5943L5755,6054C5787,6186 5898,6558 6009,6908C6080,7130 6090,7171 6090,7235C6090,7276 6086,7320 6080,7334C6068,7367 5918,7466 5746,7556L5618,7623L5676,7642C5826,7693 6083,7911 6358,8219L6450,8323L6452,8492L6455,8662L6510,8682C6604,8716 6595,8720 6720,8604C6917,8423 6996,8371 7080,8370L7125,8369L6990,8299C6818,8210 6705,8130 6661,8065L6628,8015L6633,7915C6642,7737 6754,7423 7000,6887L7068,6740L6990,6609C6638,6023 6519,5524 6596,4962C6718,4071 7349,3503 8500,3250L8645,3218L8915,3225C9439,3238 9636,3286 10105,3515C10717,3814 11149,4209 11390,4690C11482,4874 11563,5147 11596,5385C11621,5566 11621,6039 11595,6185C11511,6670 11245,7031 10735,7351C10526,7483 10172,7641 9880,7735C9817,7755 9757,7779 9747,7787C9661,7865 9443,8320 9235,8855C9193,8965 9153,9061 9148,9068C9142,9074 9127,9080 9114,9080C9047,9080 7908,8688 7462,8511L7408,8490L7445,8524C7474,8552 7480,8564 7475,8582C7463,8623 7417,8683 7347,8753C7294,8805 7255,8832 7181,8868L7085,8915L7167,9025C7251,9137 7305,9227 7320,9282C7331,9319 7312,9423 7276,9528L7251,9602L7278,9584C7338,9545 7551,9380 7660,9289C7865,9117 8020,8943 8020,8885C8020,8874 8027,8854 8036,8842C8050,8822 8059,8820 8152,8820L8252,8820L8360,8890C8491,8976 8505,8990 8503,9039C8496,9212 8204,9535 7680,9949C7521,10075 7229,10211 6825,10346C6674,10397 6640,10403 6580,10393ZM6447,9788C6246,9538 6180,9436 6180,9375C6180,9326 6206,9251 6245,9186C6264,9154 6280,9126 6280,9125C6280,9124 6259,9115 6233,9105L6186,9087L6161,9121C6044,9274 5920,9382 5776,9455C5658,9515 5633,9518 5540,9487C5499,9473 5464,9463 5462,9465C5456,9471 5767,9623 5915,9685C6071,9751 6548,9939 6562,9940C6566,9940 6515,9871 6447,9788ZM5680,8920C5691,8899 5688,8897 5653,8906C5640,8910 5633,8917 5637,8926C5645,8946 5668,8943 5680,8920ZM5316,8523C5401,8439 5415,8435 5665,8435L5885,8435L5815,8388C5650,8279 5245,7951 5235,7919C5225,7887 5240,7842 5276,7795L5309,7750L5260,7770C5152,7813 4897,7900 4750,7945C4665,7972 4594,7994 4593,7994C4592,7995 4602,8028 4615,8069C4674,8247 4788,8379 5068,8590L5195,8686L5235,8625C5257,8592 5293,8546 5316,8523ZM5960,8509C5960,8480 5955,8468 5938,8459C5920,8449 5918,8450 5923,8465C5927,8474 5930,8502 5930,8527C5930,8566 5932,8571 5945,8560C5954,8553 5960,8531 5960,8509ZM8197,8211C8261,8172 8330,8002 8371,7787L8393,7671L8367,7640C8352,7623 8338,7594 8334,7575L8328,7540L8234,7540C8144,7540 8139,7541 8106,7571C8062,7609 7978,7720 7905,7836L7850,7924L7850,8046C7850,8198 7856,8209 7951,8220C8080,8235 8163,8231 8197,8211ZM4809,7433C4814,7412 4829,7343 4841,7280L4863,7165L4821,7075C4764,6954 4697,6840 4663,6808C4640,6787 4622,6782 4558,6776C4482,6770 4480,6771 4445,6802C4405,6836 4330,6981 4330,7023C4330,7058 4401,7273 4434,7338C4469,7407 4515,7458 4548,7463C4563,7465 4625,7468 4687,7469L4799,7470L4809,7433ZM8660,7171C8673,7161 8688,7138 8693,7119C8712,7045 8708,7045 9060,7095C9304,7130 9313,7130 9461,7120C9708,7102 9892,7063 10064,6991C10244,6916 10367,6832 10503,6691C10686,6501 10812,6249 10885,5923C10911,5811 10912,5796 10907,5610C10898,5280 10835,5070 10675,4829C10419,4445 9936,4151 9256,3965C9127,3930 9126,3930 8914,3930C8741,3930 8681,3934 8593,3951C8172,4031 7830,4189 7614,4405C7381,4637 7280,4907 7280,5295C7280,5570 7350,5796 7525,6084C7704,6381 8057,6773 8435,7098C8553,7199 8556,7201 8595,7195C8617,7191 8646,7181 8660,7171ZM4364,6400C4398,6387 4432,6365 4453,6341C4486,6304 4491,6292 4504,6209C4510,6178 4528,6159 4653,6054C4997,5767 5259,5463 5398,5192C5515,4963 5540,4846 5540,4517L5540,4276L5499,4156C5414,3903 5292,3693 5137,3533C4882,3268 4577,3134 4147,3100C4019,3090 4003,3090 3863,3115C3294,3214 2802,3407 2485,3655C2381,3737 2229,3895 2163,3990C2057,4146 1969,4359 1934,4545C1909,4682 1904,4969 1924,5108C2016,5736 2497,6116 3380,6260C3480,6276 3551,6280 3737,6280C3865,6280 3992,6285 4019,6291C4087,6305 4130,6336 4155,6389L4175,6432L4242,6426C4279,6423 4334,6411 4364,6400Z" style="fill:rgb(34,34,34);fill-rule:nonzero;"/>
        </g>
        <g transform="matrix(0.473954,0,0,0.532532,0.671378,-6.26207)">
            <g transform="matrix(30.0451,0,0,30.0451,33.7133,179.789)">
                <path d="M0.333,-0.699C0.458,-0.699 0.553,-0.669 0.62,-0.608C0.687,-0.547 0.72,-0.462 0.72,-0.353C0.72,-0.244 0.688,-0.158 0.623,-0.095C0.558,-0.032 0.458,-0 0.325,-0L0.086,-0L0.086,-0.699L0.333,-0.699ZM0.341,-0.138C0.412,-0.138 0.467,-0.156 0.505,-0.192C0.544,-0.228 0.563,-0.28 0.563,-0.349C0.563,-0.418 0.544,-0.47 0.505,-0.507C0.467,-0.545 0.408,-0.563 0.329,-0.563L0.242,-0.563L0.242,-0.138L0.341,-0.138Z" style="fill:rgb(238,238,238);fill-rule:nonzero;"/>
            </g>
            <g transform="matrix(30.0451,0,0,30.0451,56.818,179.789)">
                <path d="M0.59,-0.699L0.59,-0.56L0.242,-0.56L0.242,-0.416L0.555,-0.416L0.555,-0.283L0.242,-0.283L0.242,-0.138L0.601,-0.138L0.601,-0L0.086,-0L0.086,-0.699L0.59,-0.699Z" style="fill:rgb(238,238,238);fill-rule:nonzero;"/>
            </g>
            <g transform="matrix(30.0451,0,0,30.0451,76.4675,179.789)">
                <path d="M0.344,-0.254L0.522,-0.699L0.691,-0.699L0.41,-0L0.278,-0L-0.003,-0.699L0.166,-0.699L0.344,-0.254Z" style="fill:rgb(238,238,238);fill-rule:nonzero;"/>
            </g>
            <g transform="matrix(30.0451,0,0,30.0451,97.1385,179.789)">
                <rect x="0.086" y="-0.699" width="0.156" height="0.699" style="fill:rgb(238,238,238);fill-rule:nonzero;"/>
            </g>
            <g transform="matrix(30.0451,0,0,30.0451,106.993,179.789)">
                <path d="M0.584,-0L0.519,-0.151L0.226,-0.151L0.161,-0L-0.005,-0L0.297,-0.699L0.448,-0.699L0.75,-0L0.584,-0ZM0.373,-0.491L0.285,-0.288L0.46,-0.288L0.373,-0.491Z" style="fill:rgb(238,238,238);fill-rule:nonzero;"/>
            </g>
            <g transform="matrix(30.0451,0,0,30.0451,129.377,179.789)">
                <path d="M0.575,-0.699L0.731,-0.699L0.731,-0L0.575,-0L0.242,-0.438L0.242,-0L0.086,-0L0.086,-0.699L0.232,-0.699L0.575,-0.249L0.575,-0.699Z" style="fill:rgb(238,238,238);fill-rule:nonzero;"/>
            </g>
            <g transform="matrix(30.0451,0,0,30.0451,153.924,179.789)">
                <path d="M0.382,-0.564L0.382,-0L0.226,-0L0.226,-0.564L0.028,-0.564L0.028,-0.699L0.58,-0.699L0.58,-0.564L0.382,-0.564Z" style="fill:rgb(238,238,238);fill-rule:nonzero;"/>
            </g>
        </g>
    </g>
</svg>
