<?xml version="1.0" encoding="UTF-8" standalone="no"?>
<!DOCTYPE svg PUBLIC "-//W3C//DTD SVG 1.1//EN" "http://www.w3.org/Graphics/SVG/1.1/DTD/svg11.dtd">
<svg width="200" height="200" viewBox="0 0 200 200" version="1.1" xmlns="http://www.w3.org/2000/svg" xmlns:xlink="http://www.w3.org/1999/xlink" xml:space="preserve" xmlns:serif="http://www.serif.com/" style="fill-rule:evenodd;clip-rule:evenodd;stroke-linejoin:round;stroke-miterlimit:2;">
    <g id="Dominant" transform="matrix(2,0,0,2,0,0)">
        <path id="rect5322" d="M100,3.75C100,1.68 98.32,0 96.25,0L3.75,0C1.68,0 0,1.68 0,3.75L0,96.25C0,98.32 1.68,100 3.75,100L96.25,100C98.32,100 100,98.32 100,96.25L100,3.75Z" style="fill:rgb(34,34,34);"/>
        <path id="rect5324" d="M95,7.5C95,6.12 93.88,5 92.5,5L7.5,5C6.12,5 5,6.12 5,7.5L5,92.5C5,93.88 6.12,95 7.5,95L92.5,95C93.88,95 95,93.88 95,92.5L95,7.5Z" style="fill:rgb(204,116,0);"/>
        <path id="path5326" d="M2.75,70L2.75,95C2.75,100.817 7.433,96.25 13.25,96.25L86.75,96.25C92.567,96.25 97.25,100.817 97.25,95L97.25,70L2.75,70Z" style="fill:rgb(34,34,34);fill-rule:nonzero;"/>
        <g transform="matrix(0.473954,0,0,0.532532,-0.311538,-6.26207)">
            <g transform="matrix(30.0451,0,0,30.0451,16.9338,179.789)">
                <path d="M0.333,-0.699C0.458,-0.699 0.553,-0.669 0.62,-0.608C0.687,-0.547 0.72,-0.462 0.72,-0.353C0.72,-0.244 0.688,-0.158 0.623,-0.095C0.558,-0.032 0.458,-0 0.325,-0L0.086,-0L0.086,-0.699L0.333,-0.699ZM0.341,-0.138C0.412,-0.138 0.467,-0.156 0.505,-0.192C0.544,-0.228 0.563,-0.28 0.563,-0.349C0.563,-0.418 0.544,-0.47 0.505,-0.507C0.467,-0.545 0.408,-0.563 0.329,-0.563L0.242,-0.563L0.242,-0.138L0.341,-0.138Z" style="fill:rgb(238,238,238);fill-rule:nonzero;"/>
            </g>
            <g transform="matrix(30.0451,0,0,30.0451,40.0385,179.789)">
                <path d="M0.621,-0.354C0.621,-0.416 0.601,-0.469 0.561,-0.513C0.521,-0.557 0.472,-0.579 0.413,-0.579C0.355,-0.579 0.306,-0.557 0.266,-0.513C0.226,-0.469 0.206,-0.416 0.206,-0.354C0.206,-0.291 0.226,-0.238 0.266,-0.195C0.306,-0.151 0.355,-0.129 0.413,-0.129C0.472,-0.129 0.521,-0.151 0.561,-0.195C0.601,-0.238 0.621,-0.291 0.621,-0.354ZM0.674,-0.097C0.603,-0.028 0.516,0.007 0.413,0.007C0.31,0.007 0.223,-0.028 0.152,-0.097C0.081,-0.166 0.046,-0.251 0.046,-0.354C0.046,-0.457 0.081,-0.543 0.152,-0.612C0.223,-0.681 0.31,-0.715 0.413,-0.715C0.516,-0.715 0.603,-0.681 0.674,-0.612C0.745,-0.543 0.78,-0.457 0.78,-0.354C0.78,-0.251 0.745,-0.166 0.674,-0.097Z" style="fill:rgb(238,238,238);fill-rule:nonzero;"/>
            </g>
            <g transform="matrix(30.0451,0,0,30.0451,64.8558,179.789)">
                <path d="M0.712,-0.44L0.523,-0.058L0.43,-0.058L0.242,-0.44L0.242,-0L0.086,-0L0.086,-0.699L0.297,-0.699L0.477,-0.315L0.658,-0.699L0.868,-0.699L0.868,-0L0.712,-0L0.712,-0.44Z" style="fill:rgb(238,238,238);fill-rule:nonzero;"/>
            </g>
            <g transform="matrix(30.0451,0,0,30.0451,93.5189,179.789)">
                <rect x="0.086" y="-0.699" width="0.156" height="0.699" style="fill:rgb(238,238,238);fill-rule:nonzero;"/>
            </g>
            <g transform="matrix(30.0451,0,0,30.0451,103.374,179.789)">
                <path d="M0.575,-0.699L0.731,-0.699L0.731,-0L0.575,-0L0.242,-0.438L0.242,-0L0.086,-0L0.086,-0.699L0.232,-0.699L0.575,-0.249L0.575,-0.699Z" style="fill:rgb(238,238,238);fill-rule:nonzero;"/>
            </g>
            <g transform="matrix(30.0451,0,0,30.0451,127.921,179.789)">
                <path d="M0.584,-0L0.519,-0.151L0.226,-0.151L0.161,-0L-0.005,-0L0.297,-0.699L0.448,-0.699L0.75,-0L0.584,-0ZM0.373,-0.491L0.285,-0.288L0.46,-0.288L0.373,-0.491Z" style="fill:rgb(238,238,238);fill-rule:nonzero;"/>
            </g>
            <g transform="matrix(30.0451,0,0,30.0451,150.304,179.789)">
                <path d="M0.575,-0.699L0.731,-0.699L0.731,-0L0.575,-0L0.242,-0.438L0.242,-0L0.086,-0L0.086,-0.699L0.232,-0.699L0.575,-0.249L0.575,-0.699Z" style="fill:rgb(238,238,238);fill-rule:nonzero;"/>
            </g>
            <g transform="matrix(30.0451,0,0,30.0451,174.851,179.789)">
                <path d="M0.382,-0.564L0.382,-0L0.226,-0L0.226,-0.564L0.028,-0.564L0.028,-0.699L0.58,-0.699L0.58,-0.564L0.382,-0.564Z" style="fill:rgb(238,238,238);fill-rule:nonzero;"/>
            </g>
        </g>
        <g id="path4728" transform="matrix(1,0,0,1,7.14026,-1.88976e-06)">
            <path d="M65.155,19.876C64.481,19.662 63.708,19.656 62.996,19.886C62.051,20.191 61.923,20.385 61.395,22.306C61.153,23.186 60.876,24.163 60.779,24.477C60.681,24.79 60.547,25.268 60.48,25.538C60.414,25.807 60.269,26.341 60.158,26.723C59.812,27.918 59.404,29.394 59.393,29.493C59.387,29.545 59.285,29.922 59.165,30.332C59.046,30.742 58.876,31.364 58.786,31.716C58.696,32.068 58.424,33.1 58.18,34.008C57.937,34.917 57.743,35.681 57.75,35.705C57.756,35.73 57.707,35.924 57.641,36.138C57.501,36.589 56.902,39.037 56.534,40.655C56.314,41.625 56.233,42.539 56.292,43.377C56.328,43.887 56.634,44.586 57.004,45.002C57.318,45.357 57.459,45.439 57.912,45.539C58.399,45.646 58.508,45.636 59.123,45.438C59.66,45.264 59.888,45.14 60.23,44.835C60.899,44.237 60.951,44.11 61.857,40.787C62.25,39.345 62.633,37.935 62.689,37.724C62.711,37.643 62.831,37.221 62.958,36.786C63.083,36.351 63.191,35.951 63.196,35.897C63.201,35.843 63.326,35.375 63.475,34.856C63.623,34.338 63.866,33.47 64.015,32.926C64.163,32.382 64.41,31.508 64.562,30.983C64.715,30.458 64.834,30.009 64.827,29.983C64.82,29.958 64.929,29.541 65.068,29.058C65.646,27.058 66.767,22.966 66.879,22.448C66.94,22.164 66.92,21.896 66.802,21.459C66.658,20.92 66.6,20.82 66.224,20.479C65.926,20.208 65.558,20.004 65.154,19.876L65.155,19.876ZM27.693,9.899C27.093,9.707 26.404,9.683 25.724,9.855C25.19,9.991 25.027,10.071 24.757,10.332C24.469,10.611 24.371,10.862 23.866,12.585C23.554,13.651 23.272,14.654 23.24,14.813C23.209,14.973 23.085,15.418 22.965,15.803C22.845,16.188 22.73,16.598 22.713,16.714C22.695,16.83 22.625,17.103 22.557,17.323C22.435,17.714 21.917,19.606 21.361,21.684C21.208,22.254 20.967,23.139 20.827,23.65C20.686,24.162 20.53,24.76 20.479,24.98C20.428,25.2 20.25,25.911 20.082,26.561C18.983,30.821 18.723,32.225 18.828,33.333C18.887,33.947 18.925,34.092 19.155,34.54C19.446,35.11 19.923,35.465 20.567,35.591C21.03,35.682 21.184,35.671 21.673,35.508C22.69,35.17 23.592,34.166 23.77,33.175C23.808,32.964 23.94,32.454 24.065,32.043C24.19,31.631 24.319,31.164 24.351,31.004C24.384,30.844 24.509,30.378 24.627,29.969C24.746,29.559 24.984,28.712 25.158,28.086C25.332,27.46 25.573,26.592 25.695,26.156C25.817,25.72 25.993,25.075 26.085,24.723C26.271,24.014 26.315,23.852 26.737,22.35C26.898,21.778 27.071,21.134 27.122,20.919C27.172,20.704 27.3,20.242 27.408,19.894C27.516,19.545 27.6,19.244 27.595,19.224C27.59,19.204 27.708,18.754 27.858,18.224C28.009,17.693 28.254,16.815 28.402,16.271C28.55,15.727 28.773,14.921 28.899,14.48C29.52,12.297 29.564,11.606 29.127,10.94C28.805,10.448 28.293,10.09 27.693,9.899L27.693,9.899ZM34.117,12.78L33.972,13.294C33.485,15.028 33.228,15.977 33.236,16.007C33.242,16.026 33.104,16.539 32.934,17.148C32.597,18.346 32.29,19.473 31.876,21.019C31.732,21.562 31.511,22.362 31.388,22.798C31.264,23.235 31.099,23.856 31.022,24.179C30.946,24.502 30.844,24.88 30.794,25.019C30.746,25.158 30.61,25.647 30.493,26.107C30.376,26.566 30.228,27.122 30.164,27.341C29.924,28.16 29.449,29.902 29.457,29.932C29.461,29.95 29.337,30.41 29.181,30.955C29.025,31.5 28.901,31.965 28.907,31.988C28.913,32.011 28.859,32.219 28.786,32.451C28.66,32.855 28.156,34.688 27.883,35.738L27.882,35.739C27.812,36.01 27.779,36.284 27.808,36.347C27.838,36.411 28.241,36.565 28.702,36.69C29.164,36.815 29.964,37.034 30.48,37.174C30.996,37.313 31.894,37.563 32.476,37.727C33.057,37.892 33.552,38.022 33.576,38.015C33.6,38.008 33.97,38.107 34.398,38.232C35.031,38.418 36.036,38.694 37.298,39.029C38.508,39.35 39.521,39.625 40.424,39.879C41.032,40.049 41.544,40.185 41.564,40.18C41.584,40.174 42.072,40.302 42.647,40.462C43.221,40.623 43.842,40.794 44.025,40.843C44.208,40.893 44.847,41.066 45.445,41.23C46.043,41.393 46.88,41.616 47.305,41.726C47.73,41.834 48.358,42.011 48.702,42.119C49.045,42.226 49.349,42.309 49.374,42.302C49.399,42.295 49.72,42.375 50.086,42.482C50.452,42.589 50.76,42.663 50.77,42.644C50.793,42.599 51.224,41.018 51.437,40.191C51.528,39.84 51.692,39.244 51.803,38.87C51.914,38.495 51.998,38.169 51.991,38.144C51.984,38.119 52.084,37.736 52.211,37.293C52.455,36.439 52.915,34.759 53.353,33.128C53.498,32.585 53.718,31.785 53.841,31.349C53.964,30.913 54.127,30.292 54.204,29.969C54.28,29.646 54.384,29.268 54.433,29.129C54.482,28.99 54.618,28.5 54.735,28.04C54.852,27.581 54.998,27.026 55.063,26.807C55.321,25.927 55.779,24.244 55.77,24.21C55.765,24.19 55.901,23.677 56.071,23.069C56.243,22.462 56.482,21.609 56.604,21.173C56.926,20.029 57.162,19.049 57.119,19.034C56.876,18.951 55.032,18.433 55.005,18.441C54.985,18.446 54.532,18.327 53.998,18.177C53.464,18.027 52.539,17.773 51.943,17.615C51.346,17.456 50.462,17.211 49.978,17.071C49.495,16.931 49.083,16.823 49.062,16.828C49.041,16.834 48.577,16.71 48.032,16.554C47.487,16.398 47.021,16.276 46.996,16.283C46.973,16.289 46.719,16.219 46.433,16.129C46.146,16.038 45.669,15.906 45.372,15.833C45.076,15.76 44.454,15.594 43.992,15.466C43.529,15.337 42.706,15.113 42.164,14.968C40.666,14.566 39.512,14.252 38.31,13.918C37.711,13.751 37.179,13.609 37.127,13.604C37.044,13.595 36.118,13.344 34.585,12.914L34.117,12.78ZM60.329,20.857C60.104,20.786 59.569,20.645 59.139,20.542C58.708,20.439 58.301,20.333 58.236,20.306C58.154,20.272 58.051,20.518 57.902,21.108C57.562,22.448 57.518,22.613 57.236,23.631C57.089,24.159 56.976,24.608 56.981,24.629C56.988,24.651 56.865,25.12 56.71,25.67C56.555,26.221 56.434,26.69 56.439,26.712C56.45,26.751 56.331,27.198 55.692,29.508C55.52,30.124 55.386,30.643 55.391,30.662C55.4,30.695 54.867,32.721 54.575,33.761C54.491,34.061 54.369,34.527 54.305,34.796C54.196,35.254 52.838,40.432 52.6,41.298L52.602,41.298C52.542,41.515 52.499,41.724 52.506,41.761C52.522,41.831 52.799,41.916 54.235,42.289C54.714,42.414 55.113,42.501 55.118,42.484C55.157,42.373 55.588,40.684 55.69,40.247C55.758,39.955 55.925,39.312 56.061,38.819C56.373,37.689 57.2,34.535 57.355,33.887C57.42,33.618 57.561,33.094 57.671,32.724C57.781,32.354 57.865,32.029 57.858,32.002C57.85,31.975 57.974,31.514 58.132,30.977C58.291,30.44 58.414,29.975 58.406,29.945C58.398,29.915 58.52,29.446 58.676,28.9C58.832,28.355 58.955,27.893 58.95,27.873C58.945,27.853 59.006,27.601 59.088,27.312C59.17,27.023 59.353,26.344 59.494,25.803C59.635,25.261 59.889,24.286 60.059,23.636C60.229,22.986 60.451,22.123 60.554,21.719L60.739,20.984L60.329,20.857ZM30.715,13.048C30.364,12.965 30.28,12.973 30.242,13.086C30.08,13.572 29.176,16.921 29.191,16.978C29.196,16.999 29.1,17.384 28.976,17.833C28.852,18.283 28.627,19.116 28.477,19.686C28.327,20.255 28.084,21.165 27.938,21.708C27.791,22.252 27.644,22.827 27.611,22.986C27.578,23.146 27.456,23.611 27.339,24.02C27.221,24.428 27.084,24.939 27.033,25.155C26.926,25.606 26.53,27.115 25.763,29.984C25.633,30.473 25.37,31.492 25.178,32.249C24.987,33.006 24.777,33.783 24.714,33.976C24.651,34.169 24.607,34.368 24.616,34.415C24.626,34.463 24.828,34.545 25.063,34.6C25.298,34.654 25.862,34.801 26.317,34.927C26.773,35.053 27.166,35.151 27.192,35.145C27.235,35.133 27.604,33.796 27.89,32.621C27.955,32.352 28.143,31.622 28.31,30.998C28.477,30.374 28.711,29.494 28.829,29.044C28.947,28.594 29.155,27.827 29.288,27.338C29.421,26.849 29.525,26.433 29.52,26.413C29.514,26.392 29.637,25.927 29.793,25.379C29.948,24.831 30.07,24.361 30.062,24.335C30.055,24.308 30.179,23.846 30.337,23.309C30.496,22.772 30.619,22.306 30.61,22.274C30.602,22.242 30.713,21.813 30.858,21.321C31.003,20.83 31.117,20.407 31.11,20.382C31.103,20.356 31.171,20.084 31.26,19.777C31.35,19.469 31.546,18.741 31.696,18.158C31.845,17.576 32.093,16.624 32.247,16.041C32.851,13.751 32.868,13.665 32.745,13.611C32.595,13.546 31.283,13.182 30.715,13.048L30.715,13.048ZM35.754,39.906L35.721,40.015C35.572,40.495 35.428,41.002 35.432,41.036C35.437,41.081 35.257,41.69 35.084,42.214C35.021,42.405 34.979,42.569 34.989,42.581C34.999,42.593 34.953,42.777 34.888,42.99C34.822,43.201 34.719,43.552 34.659,43.77C34.598,43.988 34.505,44.309 34.452,44.484C34.399,44.658 34.34,44.873 34.32,44.96C34.301,45.047 34.241,45.271 34.187,45.456C34.133,45.641 34.041,45.962 33.983,46.169C33.926,46.376 33.823,46.734 33.756,46.963C33.688,47.192 33.586,47.558 33.528,47.776C33.415,48.198 33.202,48.944 33.065,49.401C33.019,49.553 32.931,49.874 32.868,50.114C32.805,50.354 32.696,50.746 32.626,50.986C32.355,51.914 32.311,52.07 32.206,52.473C32.081,52.953 32.061,53.029 31.929,53.474C31.876,53.654 31.784,53.971 31.726,54.178C31.504,54.968 31.437,55.201 31.337,55.527C31.281,55.711 31.243,55.875 31.252,55.889C31.261,55.905 31.595,56.007 31.993,56.118C32.97,56.39 34.619,56.84 35.053,56.953C35.247,57.003 35.967,57.195 36.651,57.378C37.334,57.56 37.909,57.709 37.928,57.71C37.961,57.711 38.035,57.472 38.29,56.562C38.348,56.355 38.448,56.015 38.512,55.808C38.577,55.601 38.628,55.414 38.625,55.392C38.623,55.369 38.673,55.174 38.736,54.956C38.8,54.738 38.987,54.083 38.987,54.083C39.062,53.821 39.165,53.481 39.217,53.327C39.269,53.173 39.304,53.038 39.294,53.027C39.279,53.01 39.438,52.429 39.58,51.981C39.608,51.894 39.661,51.717 39.698,51.586C39.734,51.455 39.807,51.197 39.859,51.011C39.912,50.826 40.002,50.505 40.059,50.297C40.117,50.09 40.227,49.697 40.303,49.424C40.38,49.152 40.49,48.76 40.547,48.553C40.604,48.345 40.69,48.051 40.739,47.899C40.789,47.746 40.848,47.534 40.871,47.428C40.895,47.322 40.944,47.153 40.98,47.052C41.015,46.951 41.057,46.797 41.074,46.709C41.115,46.498 41.291,45.88 41.433,45.45C41.496,45.26 41.539,45.095 41.53,45.084C41.521,45.072 41.554,44.943 41.604,44.796C41.655,44.649 41.771,44.243 41.861,43.894C41.952,43.544 42.068,43.138 42.119,42.991C42.169,42.844 42.203,42.715 42.193,42.703C42.183,42.692 42.227,42.544 42.289,42.376C42.351,42.207 42.411,41.994 42.423,41.903L42.446,41.736L42.165,41.651C42.01,41.604 41.62,41.498 41.297,41.414C40.974,41.33 40.331,41.157 39.867,41.031C37.96,40.512 37.123,40.286 36.8,40.203C36.612,40.154 36.301,40.068 36.107,40.01L35.754,39.906ZM39.228,58.967C38.619,58.809 37.753,58.581 37.303,58.459C36.854,58.337 36.465,58.244 36.44,58.251C36.414,58.257 36.087,58.179 35.713,58.076C34.882,57.849 32.89,57.336 32.223,57.177C30.732,56.822 29.169,56.42 29.08,56.369C29.023,56.337 28.95,56.318 28.917,56.327C28.861,56.342 28.575,57.299 28.53,57.622C28.519,57.7 28.363,58.318 28.184,58.995L27.859,60.224L28.094,60.322C28.223,60.376 28.357,60.413 28.393,60.404C28.428,60.396 28.977,60.525 29.614,60.69C31.752,61.245 32.046,61.32 33.327,61.64C35.002,62.059 34.909,62.035 35.59,62.218C35.915,62.306 36.399,62.421 36.665,62.474C36.931,62.527 37.263,62.611 37.403,62.66C37.683,62.76 39.33,63.155 39.394,63.138C39.417,63.131 39.512,62.806 39.607,62.416C39.701,62.025 39.913,61.185 40.076,60.547C40.24,59.909 40.365,59.357 40.355,59.319C40.345,59.282 39.838,59.123 39.229,58.966L39.228,58.967ZM30.57,61.84C29.986,61.682 29.466,61.576 29.416,61.604C29.333,61.652 29.192,62.14 28.756,63.874C28.61,64.454 28.482,64.935 27.92,67.02C27.762,67.604 27.576,68.311 27.505,68.592C27.258,69.568 27.022,70.444 26.8,71.202C26.677,71.622 26.584,71.983 26.592,72.004C26.6,72.026 26.511,72.366 26.394,72.76C26.276,73.155 26.186,73.494 26.193,73.513C26.201,73.531 26.101,73.898 25.974,74.328C25.846,74.758 25.748,75.128 25.757,75.152C25.766,75.176 25.675,75.512 25.556,75.899C25.437,76.285 25.336,76.664 25.331,76.743C25.326,76.821 25.263,77.065 25.191,77.287C25.119,77.508 25.011,77.899 24.952,78.154L32.821,80.352C32.956,79.834 33.865,76.668 33.986,76.243C34.108,75.819 34.201,75.458 34.194,75.44C34.188,75.422 34.264,75.115 34.364,74.756C34.811,73.164 35.037,72.313 35.025,72.282C35.018,72.263 35.117,71.898 35.247,71.47C35.376,71.043 35.475,70.677 35.467,70.657C35.46,70.638 35.565,70.22 35.702,69.728C36.21,67.904 36.31,67.531 36.298,67.501C36.292,67.484 36.391,67.118 36.518,66.686C36.646,66.254 36.744,65.885 36.735,65.865C36.728,65.845 36.796,65.584 36.886,65.286C37.093,64.603 37.323,63.666 37.287,63.651C37.237,63.632 35.591,63.184 34.493,62.891C32.052,62.241 31.587,62.115 30.571,61.84L30.57,61.84Z" style="fill:rgb(34,34,34);fill-rule:nonzero;"/>
        </g>
    </g>
</svg>
