<?xml version="1.0" encoding="UTF-8" standalone="no"?>
<!DOCTYPE svg PUBLIC "-//W3C//DTD SVG 1.1//EN" "http://www.w3.org/Graphics/SVG/1.1/DTD/svg11.dtd">
<svg width="200" height="200" viewBox="0 0 200 200" version="1.1" xmlns="http://www.w3.org/2000/svg" xmlns:xlink="http://www.w3.org/1999/xlink" xml:space="preserve" xmlns:serif="http://www.serif.com/" style="fill-rule:evenodd;clip-rule:evenodd;">
    <g id="Female" transform="matrix(2,0,0,2,0,0)">
        <path id="rect5322" d="M100,3.75C100,1.68 98.32,0 96.25,0L3.75,0C1.68,0 0,1.68 0,3.75L0,96.25C0,98.32 1.68,100 3.75,100L96.25,100C98.32,100 100,98.32 100,96.25L100,3.75Z" style="fill:rgb(34,34,34);"/>
        <path id="rect5324" d="M95,7.5C95,6.12 93.88,5 92.5,5L7.5,5C6.12,5 5,6.12 5,7.5L5,92.5C5,93.88 6.12,95 7.5,95L92.5,95C93.88,95 95,93.88 95,92.5L95,7.5Z" style="fill:rgb(229,0,153);"/>
        <path id="path5326" d="M2.75,70L2.75,95C2.75,100.817 7.433,96.25 13.25,96.25L86.75,96.25C92.567,96.25 97.25,100.817 97.25,95L97.25,70L2.75,70Z" style="fill:rgb(34,34,34);fill-rule:nonzero;"/>
        <g transform="matrix(0.197486,0,0,0.197486,24.0968,63.9813)">
            <g id="text2632">
                <path d="M136.035,-78.784L136.035,-10.083L214.478,-10.083L214.478,0L136.035,0L136.035,75.024L125.952,75.024L125.952,0L47.339,0L47.339,-10.083L125.952,-10.083L125.952,-78.784C114.217,-78.784 101.371,-82.515 87.415,-89.978C73.458,-97.441 62.349,-108.321 54.089,-122.62C45.829,-136.918 41.699,-152.043 41.699,-167.993C41.699,-183.488 45.658,-198.356 53.577,-212.598C61.495,-226.839 72.518,-237.891 86.646,-245.752C100.773,-253.613 115.641,-257.544 131.25,-257.544C146.745,-257.544 161.584,-253.585 175.769,-245.667C189.954,-237.748 200.977,-226.697 208.838,-212.512C216.699,-198.328 220.63,-183.488 220.63,-167.993C220.63,-144.181 212.455,-123.645 196.106,-106.384C179.757,-89.124 159.733,-79.924 136.035,-78.784ZM131.079,-247.974C117.635,-247.974 104.504,-244.527 91.687,-237.634C78.87,-230.741 68.872,-220.858 61.694,-207.983C54.517,-195.109 50.928,-181.722 50.928,-167.822C50.928,-145.605 58.761,-126.664 74.426,-110.999C90.092,-95.333 108.976,-87.5 131.079,-87.5C153.296,-87.5 172.237,-95.333 187.903,-110.999C203.569,-126.664 211.401,-145.605 211.401,-167.822C211.401,-181.722 207.813,-195.109 200.635,-207.983C193.457,-220.858 183.459,-230.741 170.642,-237.634C157.825,-244.527 144.637,-247.974 131.079,-247.974Z" style="fill:rgb(34,34,34);fill-rule:nonzero;stroke:rgb(34,34,34);stroke-width:15px;"/>
            </g>
        </g>
        <g transform="matrix(0.473954,0,0,0.532532,0.236702,-6.26207)">
            <g transform="matrix(30.0451,0,0,30.0451,26.2929,179.789)">
                <path d="M0.566,-0.699L0.566,-0.562L0.242,-0.562L0.242,-0.411L0.55,-0.411L0.55,-0.274L0.242,-0.274L0.242,-0L0.086,-0L0.086,-0.699L0.566,-0.699Z" style="fill:rgb(238,238,238);fill-rule:nonzero;"/>
            </g>
            <g transform="matrix(30.0451,0,0,30.0451,44.6805,179.789)">
                <path d="M0.59,-0.699L0.59,-0.56L0.242,-0.56L0.242,-0.416L0.555,-0.416L0.555,-0.283L0.242,-0.283L0.242,-0.138L0.601,-0.138L0.601,-0L0.086,-0L0.086,-0.699L0.59,-0.699Z" style="fill:rgb(238,238,238);fill-rule:nonzero;"/>
            </g>
            <g transform="matrix(30.0451,0,0,30.0451,64.33,179.789)">
                <path d="M0.712,-0.44L0.523,-0.058L0.43,-0.058L0.242,-0.44L0.242,-0L0.086,-0L0.086,-0.699L0.297,-0.699L0.477,-0.315L0.658,-0.699L0.868,-0.699L0.868,-0L0.712,-0L0.712,-0.44Z" style="fill:rgb(238,238,238);fill-rule:nonzero;"/>
            </g>
            <g transform="matrix(30.0451,0,0,30.0451,92.9931,179.789)">
                <rect x="0.086" y="-0.699" width="0.156" height="0.699" style="fill:rgb(238,238,238);fill-rule:nonzero;"/>
            </g>
            <g transform="matrix(30.0451,0,0,30.0451,102.848,179.789)">
                <path d="M0.575,-0.699L0.731,-0.699L0.731,-0L0.575,-0L0.242,-0.438L0.242,-0L0.086,-0L0.086,-0.699L0.232,-0.699L0.575,-0.249L0.575,-0.699Z" style="fill:rgb(238,238,238);fill-rule:nonzero;"/>
            </g>
            <g transform="matrix(30.0451,0,0,30.0451,127.395,179.789)">
                <rect x="0.086" y="-0.699" width="0.156" height="0.699" style="fill:rgb(238,238,238);fill-rule:nonzero;"/>
            </g>
            <g transform="matrix(30.0451,0,0,30.0451,137.25,179.789)">
                <path d="M0.575,-0.699L0.731,-0.699L0.731,-0L0.575,-0L0.242,-0.438L0.242,-0L0.086,-0L0.086,-0.699L0.232,-0.699L0.575,-0.249L0.575,-0.699Z" style="fill:rgb(238,238,238);fill-rule:nonzero;"/>
            </g>
            <g transform="matrix(30.0451,0,0,30.0451,161.796,179.789)">
                <path d="M0.59,-0.699L0.59,-0.56L0.242,-0.56L0.242,-0.416L0.555,-0.416L0.555,-0.283L0.242,-0.283L0.242,-0.138L0.601,-0.138L0.601,-0L0.086,-0L0.086,-0.699L0.59,-0.699Z" style="fill:rgb(238,238,238);fill-rule:nonzero;"/>
            </g>
        </g>
    </g>
</svg>
