<?xml version="1.0" encoding="UTF-8" standalone="no"?>
<!DOCTYPE svg PUBLIC "-//W3C//DTD SVG 1.1//EN" "http://www.w3.org/Graphics/SVG/1.1/DTD/svg11.dtd">
<svg width="200" height="200" viewBox="0 0 200 200" version="1.1" xmlns="http://www.w3.org/2000/svg" xmlns:xlink="http://www.w3.org/1999/xlink" xml:space="preserve" xmlns:serif="http://www.serif.com/" style="fill-rule:evenodd;clip-rule:evenodd;stroke-linejoin:round;stroke-miterlimit:2;">
    <g id="Hyposex" transform="matrix(2,0,0,2,0,0)">
        <path id="rect5322" d="M100,3.75C100,1.68 98.32,0 96.25,0L3.75,0C1.68,0 0,1.68 0,3.75L0,96.25C0,98.32 1.68,100 3.75,100L96.25,100C98.32,100 100,98.32 100,96.25L100,3.75Z" style="fill:rgb(34,34,34);"/>
        <path id="rect5324" d="M95,7.5C95,6.12 93.88,5 92.5,5L7.5,5C6.12,5 5,6.12 5,7.5L5,92.5C5,93.88 6.12,95 7.5,95L92.5,95C93.88,95 95,93.88 95,92.5L95,7.5Z" style="fill:rgb(0,204,204);"/>
        <path id="path5326" d="M2.75,70L2.75,95C2.75,100.817 7.433,96.25 13.25,96.25L86.75,96.25C92.567,96.25 97.25,100.817 97.25,95L97.25,70L2.75,70Z" style="fill:rgb(34,34,34);fill-rule:nonzero;"/>
        <g transform="matrix(0.420651,0,0,0.427624,24.3613,19.3452)">
            <path d="M5.27,44.71L27.65,17.94L12.93,17.94C11.66,17.94 10.46,17.78 9.34,17.45C8.68,17.26 8.07,17.01 7.51,16.72C6.95,16.42 6.42,16.06 5.94,15.64L5.91,15.62C5.43,15.2 5.01,14.75 4.64,14.25C4.28,13.75 3.96,13.21 3.71,12.63C3.48,12.08 3.3,11.5 3.18,10.9C3.06,10.29 2.99,9.68 2.99,9.07C2.99,8.45 3.05,7.84 3.16,7.25C3.28,6.65 3.45,6.07 3.68,5.51C3.92,4.93 4.23,4.38 4.58,3.87C4.94,3.36 5.35,2.89 5.82,2.45L5.86,2.42C6.33,1.99 6.85,1.62 7.42,1.3C8,0.99 8.61,0.72 9.27,0.52C9.84,0.35 10.43,0.21 11.04,0.13C11.66,0.04 12.29,0 12.93,0L44.84,0C46.46,0 47.92,0.22 49.22,0.66C50.55,1.11 51.71,1.8 52.69,2.71C53.71,3.66 54.48,4.8 54.99,6.12C55.49,7.41 55.74,8.87 55.74,10.48C55.74,11.74 55.61,12.93 55.35,14.03C55.21,14.64 55.02,15.22 54.79,15.79C54.56,16.35 54.28,16.89 53.97,17.39C53.75,17.74 53.48,18.13 53.17,18.56C52.9,18.94 52.54,19.41 52.11,19.95L50.83,21.55L28.97,47.58L48.61,47.58C49.22,47.58 49.83,47.62 50.44,47.7C51.02,47.77 51.6,47.89 52.16,48.04C52.82,48.22 53.42,48.46 53.97,48.73C54.52,49.01 55.03,49.35 55.51,49.74L55.54,49.77C56.05,50.19 56.49,50.65 56.87,51.16C57.26,51.68 57.58,52.23 57.83,52.82L57.94,53.11C58.14,53.61 58.28,54.15 58.38,54.71C58.48,55.27 58.53,55.84 58.53,56.41C58.53,57.03 58.47,57.65 58.36,58.25C58.25,58.85 58.08,59.43 57.86,59.98C57.62,60.57 57.32,61.13 56.95,61.65C56.58,62.17 56.16,62.66 55.68,63.09L55.62,63.14C55.15,63.56 54.62,63.94 54.05,64.25C53.49,64.56 52.89,64.81 52.24,65.01L52.01,65.07C51.49,65.21 50.94,65.32 50.37,65.39C49.78,65.46 49.18,65.5 48.59,65.5L12.16,65.5C10.5,65.5 8.97,65.29 7.58,64.88L7.57,64.88C6.79,64.65 6.05,64.35 5.37,63.97C4.68,63.59 4.04,63.15 3.48,62.64C2.91,62.13 2.4,61.57 1.96,60.96C1.52,60.35 1.15,59.7 0.86,59C0.57,58.32 0.36,57.61 0.22,56.9C0.07,56.19 0,55.44 0,54.68C0,54.09 0.06,53.49 0.16,52.9C0.27,52.31 0.43,51.74 0.64,51.2L0.67,51.12C0.75,50.91 0.84,50.69 0.94,50.48L1.25,49.87L1.61,49.26C1.76,49.05 1.91,48.82 2.07,48.61L2.02,48.57L5.27,44.71ZM12.48,111.33L27.38,93.51L18.04,93.51C17.13,93.51 16.28,93.39 15.47,93.16C14.99,93.02 14.54,92.84 14.14,92.63C13.73,92.41 13.34,92.14 12.99,91.84L12.94,91.79C12.6,91.5 12.3,91.17 12.05,90.82C11.78,90.46 11.56,90.06 11.37,89.64C11.19,89.24 11.06,88.81 10.97,88.37C10.88,87.93 10.83,87.48 10.83,87.03C10.83,86.58 10.87,86.14 10.96,85.71C11.05,85.27 11.17,84.85 11.34,84.44C11.52,84.02 11.74,83.61 12,83.24C12.25,82.88 12.56,82.53 12.91,82.21L12.92,82.19C13.27,81.87 13.65,81.6 14.07,81.36C14.49,81.13 14.94,80.94 15.41,80.79C15.82,80.66 16.25,80.57 16.69,80.51C17.14,80.45 17.59,80.42 18.04,80.42L40,80.42C41.15,80.42 42.2,80.58 43.13,80.9C44.09,81.23 44.94,81.72 45.65,82.39C46.39,83.08 46.96,83.91 47.33,84.87C47.69,85.8 47.87,86.85 47.87,88C47.87,88.43 47.85,88.86 47.8,89.3C47.75,89.73 47.68,90.14 47.6,90.53C47.5,90.96 47.36,91.38 47.2,91.79C47.04,92.19 46.84,92.58 46.61,92.94C46.47,93.18 46.28,93.45 46.05,93.77L45.32,94.74L44.44,95.84L29.88,113.16L42.61,113.16C43.04,113.16 43.47,113.19 43.92,113.24C44.35,113.29 44.76,113.38 45.15,113.48C45.63,113.61 46.07,113.78 46.46,113.98C46.87,114.19 47.25,114.44 47.61,114.74C47.98,115.04 48.31,115.39 48.59,115.76C48.88,116.14 49.11,116.55 49.3,116.98L49.38,117.2C49.52,117.57 49.63,117.96 49.7,118.37C49.78,118.78 49.81,119.2 49.81,119.6C49.81,120.05 49.77,120.49 49.69,120.93C49.61,121.37 49.49,121.79 49.32,122.19C49.15,122.62 48.92,123.03 48.65,123.41C48.38,123.8 48.07,124.15 47.73,124.46L47.69,124.5C47.34,124.81 46.96,125.08 46.54,125.31C46.14,125.53 45.7,125.71 45.23,125.86L45.05,125.91C44.68,126.01 44.29,126.09 43.88,126.14C43.45,126.19 43.02,126.22 42.61,126.22L17.5,126.22C16.93,126.22 16.37,126.18 15.81,126.11C15.26,126.04 14.74,125.92 14.24,125.78C13.67,125.61 13.14,125.39 12.64,125.12C12.15,124.85 11.69,124.53 11.27,124.16C10.85,123.79 10.49,123.39 10.17,122.95C9.85,122.52 9.59,122.04 9.37,121.53C9.16,121.03 9.01,120.53 8.9,120.01C8.8,119.49 8.75,118.95 8.75,118.4C8.75,117.98 8.79,117.54 8.87,117.11C8.95,116.68 9.07,116.27 9.22,115.88C9.3,115.73 9.37,115.53 9.44,115.37L9.66,114.93L10.07,114.28L10.02,114.24L12.48,111.33ZM70.52,74.89L91.99,49.21L77.93,49.21C77.33,49.21 76.73,49.17 76.14,49.09C75.56,49.01 75,48.89 74.47,48.74C73.84,48.56 73.25,48.32 72.71,48.04C72.16,47.75 71.65,47.4 71.19,47L71.13,46.94C70.68,46.55 70.29,46.12 69.95,45.66C69.59,45.18 69.29,44.65 69.05,44.09C68.82,43.56 68.64,43 68.52,42.41C68.4,41.82 68.34,41.23 68.34,40.64C68.34,40.04 68.4,39.45 68.51,38.87C68.62,38.29 68.79,37.73 69.02,37.2C69.25,36.64 69.55,36.11 69.89,35.62C70.23,35.14 70.63,34.68 71.09,34.26L71.11,34.24C71.57,33.82 72.08,33.45 72.63,33.14C73.18,32.83 73.78,32.58 74.41,32.39C74.97,32.22 75.54,32.09 76.12,32.01C76.71,31.93 77.32,31.88 77.94,31.88L108.64,31.88C110.2,31.88 111.61,32.09 112.87,32.52C114.16,32.96 115.28,33.62 116.23,34.5C117.22,35.42 117.96,36.52 118.46,37.8C118.94,39.05 119.19,40.45 119.19,42.01C119.19,43.23 119.07,44.37 118.82,45.43C118.68,46.01 118.5,46.58 118.28,47.13C118.06,47.68 117.79,48.19 117.49,48.67C117.29,48.99 117.03,49.37 116.72,49.8C116.43,50.21 116.09,50.66 115.71,51.14L114.48,52.67C114.1,53.14 113.64,53.69 113.1,54.33L93.5,77.65L112.3,77.65C113.52,77.65 114.67,77.8 115.72,78.09C116.34,78.26 116.92,78.49 117.46,78.76C118.01,79.04 118.52,79.37 118.99,79.76L119.01,79.78C119.5,80.19 119.92,80.63 120.28,81.11C120.65,81.61 120.97,82.15 121.21,82.72L121.31,82.99C121.5,83.48 121.65,84 121.75,84.54C121.85,85.09 121.9,85.64 121.9,86.18C121.9,86.78 121.84,87.38 121.74,87.96C121.63,88.54 121.47,89.1 121.25,89.63C121.02,90.2 120.73,90.74 120.37,91.25C120.02,91.75 119.61,92.21 119.15,92.64L119.09,92.7C118.63,93.12 118.12,93.48 117.58,93.77C117.04,94.07 116.46,94.31 115.84,94.5L115.62,94.56C115.1,94.7 114.56,94.81 114.02,94.88C113.47,94.95 112.9,94.98 112.31,94.98L77.19,94.98C76.41,94.98 75.64,94.93 74.89,94.83C74.15,94.73 73.44,94.58 72.77,94.38L72.76,94.38C72.01,94.16 71.29,93.86 70.63,93.51C69.97,93.15 69.36,92.72 68.81,92.23C68.25,91.74 67.76,91.19 67.33,90.61C66.9,90.02 66.55,89.38 66.26,88.71C65.99,88.05 65.78,87.38 65.64,86.68C65.5,85.98 65.43,85.26 65.43,84.52C65.43,83.95 65.48,83.37 65.59,82.8C65.69,82.24 65.85,81.69 66.05,81.16C66.1,80.97 66.26,80.65 66.34,80.46L66.64,79.87C66.74,79.68 66.86,79.48 66.99,79.28C67.14,79.07 67.29,78.84 67.45,78.63L67.4,78.59L70.52,74.89Z" style="fill:rgb(34,34,34);fill-rule:nonzero;"/>
        </g>
        <g transform="matrix(0.473954,0,0,0.532532,2.02318,-6.26207)">
            <g transform="matrix(30.0451,0,0,30.0451,56.79,179.789)">
                <path d="M0.52,-0.699L0.676,-0.699L0.676,-0L0.52,-0L0.52,-0.275L0.242,-0.275L0.242,-0L0.086,-0L0.086,-0.699L0.242,-0.699L0.242,-0.407L0.52,-0.407L0.52,-0.699Z" style="fill:rgb(238,238,238);fill-rule:nonzero;"/>
            </g>
            <g transform="matrix(30.0451,0,0,30.0451,79.6844,179.789)">
                <path d="M0.387,-0L0.231,-0L0.231,-0.276L-0.011,-0.699L0.158,-0.699L0.309,-0.439L0.46,-0.699L0.629,-0.699L0.387,-0.276L0.387,-0Z" style="fill:rgb(238,238,238);fill-rule:nonzero;"/>
            </g>
            <g transform="matrix(30.0451,0,0,30.0451,98.2523,179.789)">
                <path d="M0.333,-0.699C0.44,-0.699 0.519,-0.678 0.568,-0.636C0.617,-0.595 0.641,-0.531 0.641,-0.445C0.641,-0.358 0.616,-0.295 0.566,-0.255C0.515,-0.215 0.438,-0.195 0.335,-0.195L0.242,-0.195L0.242,-0L0.086,-0L0.086,-0.699L0.333,-0.699ZM0.347,-0.33C0.399,-0.33 0.434,-0.341 0.453,-0.362C0.472,-0.383 0.481,-0.413 0.481,-0.454C0.481,-0.494 0.469,-0.523 0.445,-0.54C0.42,-0.557 0.382,-0.565 0.331,-0.565L0.242,-0.565L0.242,-0.33L0.347,-0.33Z" style="fill:rgb(238,238,238);fill-rule:nonzero;"/>
            </g>
            <g transform="matrix(30.0451,0,0,30.0451,118.593,179.789)">
                <path d="M0.621,-0.354C0.621,-0.416 0.601,-0.469 0.561,-0.513C0.521,-0.557 0.472,-0.579 0.413,-0.579C0.355,-0.579 0.306,-0.557 0.266,-0.513C0.226,-0.469 0.206,-0.416 0.206,-0.354C0.206,-0.291 0.226,-0.238 0.266,-0.195C0.306,-0.151 0.355,-0.129 0.413,-0.129C0.472,-0.129 0.521,-0.151 0.561,-0.195C0.601,-0.238 0.621,-0.291 0.621,-0.354ZM0.674,-0.097C0.603,-0.028 0.516,0.007 0.413,0.007C0.31,0.007 0.223,-0.028 0.152,-0.097C0.081,-0.166 0.046,-0.251 0.046,-0.354C0.046,-0.457 0.081,-0.543 0.152,-0.612C0.223,-0.681 0.31,-0.715 0.413,-0.715C0.516,-0.715 0.603,-0.681 0.674,-0.612C0.745,-0.543 0.78,-0.457 0.78,-0.354C0.78,-0.251 0.745,-0.166 0.674,-0.097Z" style="fill:rgb(238,238,238);fill-rule:nonzero;"/>
            </g>
        </g>
    </g>
</svg>
