<?xml version="1.0" encoding="UTF-8" standalone="no"?>
<!DOCTYPE svg PUBLIC "-//W3C//DTD SVG 1.1//EN" "http://www.w3.org/Graphics/SVG/1.1/DTD/svg11.dtd">
<svg width="200" height="200" viewBox="0 0 200 200" version="1.1" xmlns="http://www.w3.org/2000/svg" xmlns:xlink="http://www.w3.org/1999/xlink" xml:space="preserve" xmlns:serif="http://www.serif.com/" style="fill-rule:evenodd;clip-rule:evenodd;stroke-linejoin:round;stroke-miterlimit:2;">
    <g id="Pure" transform="matrix(2,0,0,2,0,0)">
        <path id="rect5322" d="M100,3.75C100,1.68 98.32,0 96.25,0L3.75,0C1.68,0 0,1.68 0,3.75L0,96.25C0,98.32 1.68,100 3.75,100L96.25,100C98.32,100 100,98.32 100,96.25L100,3.75Z" style="fill:rgb(34,34,34);"/>
        <path id="rect5324" d="M95,7.5C95,6.12 93.88,5 92.5,5L7.5,5C6.12,5 5,6.12 5,7.5L5,92.5C5,93.88 6.12,95 7.5,95L92.5,95C93.88,95 95,93.88 95,92.5L95,7.5Z" style="fill:rgb(238,238,238);"/>
        <g transform="matrix(0.0070041,2.22658e-34,2.22658e-34,-0.0070041,18.0004,44.3232)">
            <g transform="matrix(1,0,0,1,-778.342,-302.635)">
                <path d="M4084.7,4956.6C4072.8,4925 4033.3,4762.8 3995.7,4594.7C3792,3675.1 3493.4,3156.9 2910,2721.8C2631.1,2512.2 2312.7,2371.8 1707.6,2191.8C1454.5,2116.6 1452.5,2055.3 1701.7,1984.1C2229.7,1831.8 2451.2,1746.8 2702.4,1594.5C3147.4,1323.6 3469.7,971.5 3691.2,510.7C3827.7,227.9 3898.9,10.3 3997.7,-428.7C4074.8,-764.9 4092.6,-824.2 4128.2,-824.2C4157.9,-824.2 4179.6,-751 4256.7,-406.9C4452.5,479.1 4765,1023 5314.8,1436.3C5627.3,1671.7 5900.2,1798.2 6408.5,1942.6C6806,2057.3 6833.7,2106.8 6544.9,2191.8C5918,2379.7 5734.1,2456.8 5433.5,2656.5C5099.3,2882 4810.5,3192.5 4624.6,3530.6C4460.4,3827.3 4357.6,4125.9 4244.9,4634.1C4181.6,4918.9 4151.9,5009.9 4124.3,5009.9C4114.4,5010 4096.6,4986.3 4084.7,4956.6Z" style="fill:rgb(34,34,34);fill-rule:nonzero;"/>
            </g>
            <g transform="matrix(1,0,0,1,-513.113,939.225)">
                <path d="M7547.7,655.1C7537.8,629.4 7506.2,502.8 7478.5,372.3C7340,-264.5 7142.2,-669.9 6811.9,-998.2C6477.7,-1328.5 6214.6,-1468.9 5579.8,-1652.8C5399.8,-1706.2 5376.1,-1722 5403.8,-1767.5C5417.6,-1789.3 5518.5,-1828.8 5682.6,-1876.3C6179,-2016.7 6509.3,-2198.7 6807.9,-2495.3C7146.1,-2829.5 7326.1,-3199.3 7480.3,-3875.7C7517.9,-4039.8 7555.5,-4182.2 7565.4,-4192.1C7595.1,-4221.8 7622.7,-4144.7 7688,-3855.9C7834.4,-3211.2 8018.3,-2829.5 8344.6,-2503.2C8667,-2180.8 8963.6,-2024.6 9618.2,-1834.7C9861.5,-1763.5 9837.7,-1724 9489.6,-1625.1C8951.7,-1472.8 8611.5,-1279 8308.9,-960.6C8014.2,-646.1 7822.4,-248.6 7697.8,313C7622.7,645.2 7608.8,698.6 7585.1,698.6C7575.3,698.7 7557.5,678.9 7547.7,655.1Z" style="fill:rgb(34,34,34);fill-rule:nonzero;"/>
            </g>
            <g transform="matrix(1,0,0,1,517.463,-58.2142)">
                <path d="M1853.9,-1130.7C1842,-1174.2 1810.4,-1306.7 1780.7,-1427.4C1592.8,-2208.6 1181.5,-2635.8 414.1,-2843.4C244,-2888.9 192.6,-2920.5 234.1,-2954.2C247.9,-2966.1 358.7,-3003.6 477.3,-3037.3C1199.2,-3246.9 1600.6,-3676.1 1780.6,-4433.5C1871.6,-4809.3 1871.6,-4813.2 1901.2,-4773.7C1915.1,-4755.9 1940.8,-4662.9 1960.5,-4566C2067.3,-4028.1 2265.1,-3660.2 2595.3,-3387.3C2799,-3219.2 2992.8,-3126.2 3380.4,-3009.6C3597.9,-2946.3 3603.9,-2916.7 3410.1,-2861.3C3048.2,-2756.5 2846.5,-2665.5 2648.7,-2517.2C2399.5,-2329.3 2227.5,-2101.9 2106.8,-1803.3C2047.5,-1655 1930.8,-1227.8 1930.8,-1158.6C1930.8,-1142.8 1918.9,-1111.1 1903.1,-1091.3C1877.6,-1055.5 1873.7,-1057.5 1853.9,-1130.7Z" style="fill:rgb(34,34,34);fill-rule:nonzero;"/>
            </g>
        </g>
        <path id="path5326" d="M2.75,70L2.75,95C2.75,100.817 7.433,96.25 13.25,96.25L86.75,96.25C92.567,96.25 97.25,100.817 97.25,95L97.25,70L2.75,70Z" style="fill:rgb(34,34,34);fill-rule:nonzero;"/>
        <g transform="matrix(0.473954,0,0,0.532532,2.08114,-6.26207)">
            <g transform="matrix(30.0451,0,0,30.0451,57.7794,179.789)">
                <path d="M0.333,-0.699C0.44,-0.699 0.519,-0.678 0.568,-0.636C0.617,-0.595 0.641,-0.531 0.641,-0.445C0.641,-0.358 0.616,-0.295 0.566,-0.255C0.515,-0.215 0.438,-0.195 0.335,-0.195L0.242,-0.195L0.242,-0L0.086,-0L0.086,-0.699L0.333,-0.699ZM0.347,-0.33C0.399,-0.33 0.434,-0.341 0.453,-0.362C0.472,-0.383 0.481,-0.413 0.481,-0.454C0.481,-0.494 0.469,-0.523 0.445,-0.54C0.42,-0.557 0.382,-0.565 0.331,-0.565L0.242,-0.565L0.242,-0.33L0.347,-0.33Z" style="fill:rgb(238,238,238);fill-rule:nonzero;"/>
            </g>
            <g transform="matrix(30.0451,0,0,30.0451,78.12,179.789)">
                <path d="M0.271,-0.181C0.297,-0.148 0.332,-0.132 0.376,-0.132C0.42,-0.132 0.455,-0.148 0.481,-0.181C0.506,-0.213 0.519,-0.257 0.519,-0.313L0.519,-0.699L0.675,-0.699L0.675,-0.308C0.675,-0.207 0.647,-0.129 0.591,-0.075C0.535,-0.02 0.463,0.007 0.376,0.007C0.289,0.007 0.217,-0.02 0.161,-0.075C0.104,-0.13 0.076,-0.207 0.076,-0.308L0.076,-0.699L0.232,-0.699L0.232,-0.313C0.232,-0.257 0.245,-0.213 0.271,-0.181Z" style="fill:rgb(238,238,238);fill-rule:nonzero;"/>
            </g>
            <g transform="matrix(30.0451,0,0,30.0451,100.684,179.789)">
                <path d="M0.653,-0.467C0.653,-0.355 0.609,-0.283 0.52,-0.25L0.697,-0L0.505,-0L0.35,-0.223L0.242,-0.223L0.242,-0L0.086,-0L0.086,-0.699L0.351,-0.699C0.46,-0.699 0.537,-0.681 0.584,-0.644C0.63,-0.607 0.653,-0.548 0.653,-0.467ZM0.356,-0.358C0.409,-0.358 0.446,-0.367 0.465,-0.384C0.484,-0.401 0.494,-0.429 0.494,-0.467C0.494,-0.504 0.484,-0.53 0.464,-0.544C0.444,-0.558 0.409,-0.565 0.359,-0.565L0.242,-0.565L0.242,-0.358L0.356,-0.358Z" style="fill:rgb(238,238,238);fill-rule:nonzero;"/>
            </g>
            <g transform="matrix(30.0451,0,0,30.0451,122.527,179.789)">
                <path d="M0.59,-0.699L0.59,-0.56L0.242,-0.56L0.242,-0.416L0.555,-0.416L0.555,-0.283L0.242,-0.283L0.242,-0.138L0.601,-0.138L0.601,-0L0.086,-0L0.086,-0.699L0.59,-0.699Z" style="fill:rgb(238,238,238);fill-rule:nonzero;"/>
            </g>
        </g>
    </g>
</svg>
